<svg width="40" height="30" viewBox="0 0 40 30" fill="none" xmlns="http://www.w3.org/2000/svg">
<path d="M38.5269 9.99554C38.8305 9.76786 39.2859 9.99554 39.2859 10.375V25.8571C39.2859 27.9062 37.6162 29.5 35.643 29.5H4.07157C2.02246 29.5 0.428711 27.9062 0.428711 25.8571V10.375C0.428711 9.99554 0.808175 9.76786 1.11175 9.99554C2.85728 11.3616 5.05818 13.0312 12.7992 18.6473C14.393 19.7857 17.1251 22.2902 19.8573 22.2902C22.5135 22.2902 25.3216 19.7857 26.8394 18.6473C34.5805 13.0312 36.7814 11.3616 38.5269 9.99554ZM19.8573 19.7857C18.0359 19.8616 15.5314 17.5848 14.2412 16.6741C4.14746 9.38839 3.38853 8.70536 1.11175 6.88393C0.65639 6.58036 0.428711 6.04911 0.428711 5.44196V4C0.428711 2.02679 2.02246 0.357142 4.07157 0.357142H35.643C37.6162 0.357142 39.2859 2.02679 39.2859 4V5.44196C39.2859 6.04911 38.9823 6.58036 38.5269 6.88393C36.2501 8.70536 35.4912 9.38839 25.3975 16.6741C24.1073 17.5848 21.6028 19.8616 19.8573 19.7857Z" fill="#D90062"/>
</svg>
