<svg width="45" height="35" viewBox="0 0 45 35" fill="none" xmlns="http://www.w3.org/2000/svg">
<path d="M22.2501 9.09368C22.4019 8.94189 22.6296 8.866 22.8573 8.866C23.0091 8.866 23.2367 8.94189 23.3885 9.09368L37.4287 20.5535V32.9999C37.4287 33.683 36.8216 34.2142 36.2144 34.2142H27.6385C27.0314 34.2142 26.4242 33.683 26.4242 32.9999V25.7142C26.4242 25.1071 25.893 24.4999 25.21 24.4999H20.3528C19.7457 24.4999 19.1385 25.1071 19.1385 25.7142V32.9999C19.1385 33.683 18.6073 34.2142 18.0001 34.2142H9.50014C8.8171 34.2142 8.28585 33.683 8.28585 32.9999V20.6294L22.2501 9.09368ZM44.335 16.9106C44.5626 17.0624 44.7144 17.366 44.7144 17.5937C44.7144 17.8214 44.6385 18.049 44.4867 18.2008L42.5135 20.5535C42.3617 20.7812 42.1341 20.8571 41.8305 20.8571C41.6028 20.8571 41.3751 20.7812 41.2234 20.6294L23.3885 5.98207C23.2367 5.83029 23.0091 5.75439 22.8573 5.75439C22.6296 5.75439 22.4019 5.83029 22.2501 5.98207L4.41532 20.6294C4.26353 20.7812 4.03585 20.8571 3.80817 20.8571C3.5046 20.8571 3.27692 20.7812 3.12514 20.5535L1.15192 18.2008C1.07603 18.049 0.924246 17.8214 0.924246 17.5937C0.924246 17.366 1.07603 17.0624 1.30371 16.9106L20.5046 1.04904C21.1117 0.59368 21.9466 0.290108 22.8573 0.290108C23.6921 0.290108 24.5269 0.59368 25.1341 1.04904L31.9644 6.66511V1.20082C31.9644 0.669573 32.3439 0.290108 32.8751 0.290108H37.1251C37.5805 0.290108 38.0359 0.669573 38.0359 1.20082V11.674L44.335 16.9106Z" fill="#D90062"/>
</svg>
