<svg width="175" height="191" viewBox="0 0 175 191" fill="none" xmlns="http://www.w3.org/2000/svg">
<path d="M119.672 115.381C85.1164 124.571 17.8428 120.527 37.3264 110.969C53.5015 103.249 66.7356 103.985 66.7356 103.985C66.7356 103.985 32.5474 112.072 54.6043 115.013C64.1623 116.484 82.5431 116.116 99.821 114.645C114.158 113.543 128.495 110.969 128.495 110.969C128.495 110.969 123.348 113.175 119.672 115.381ZM88.425 103.617C70.4118 87.4419 57.5452 73.4725 66.368 60.2384C79.2346 41.1224 114.893 31.5644 106.806 0.317036C106.806 0.317036 126.657 20.1683 88.425 49.9451C57.9129 74.2078 81.4403 88.1771 88.425 103.617ZM130.333 38.9167C89.5278 62.8117 96.8801 69.7964 106.806 83.3981C117.467 98.4704 94.3068 110.234 94.3068 110.234C94.3068 110.234 106.07 101.044 96.8801 90.3828C66.0004 55.0917 130.701 38.9167 130.333 38.9167ZM128.127 138.54C163.419 120.16 147.243 102.514 135.847 104.72C134.377 105.087 132.906 105.455 131.804 105.823C132.539 104.72 133.642 103.985 134.745 103.617C157.169 95.5295 174.815 126.777 127.392 139.276C127.76 138.908 128.127 138.908 128.127 138.54ZM145.773 161.333C165.257 170.155 103.13 187.801 28.136 175.67C0.564844 171.258 41.3702 155.451 49.0901 160.597C49.0901 160.597 46.5168 160.597 42.473 161.333C38.4292 162.435 25.9303 166.479 32.5474 169.42C51.2958 177.508 118.569 175.67 139.891 169.053C150.92 165.744 145.773 161.333 145.773 161.333ZM63.4271 145.893C63.4271 145.893 56.0748 150.304 68.5737 151.775C83.2783 153.245 90.9983 153.245 107.541 149.937C110.85 152.142 114.158 153.613 117.834 155.083C81.0726 170.891 34.3855 153.98 63.4271 145.893ZM129.598 181.919C155.331 176.772 157.537 170.891 157.537 170.891C156.434 187.066 104.232 190.374 70.4118 188.169C47.9872 186.698 43.5759 183.022 43.5759 183.022C64.8976 186.698 100.556 187.066 129.598 181.919ZM113.423 130.085C115.629 132.291 118.202 134.129 121.143 134.864C76.6613 148.098 27.0332 135.967 59.0157 125.306C59.0157 125.306 50.9282 131.556 63.0595 132.659C79.2346 134.497 91.7335 134.497 113.423 130.085Z" fill="black"/>
</svg>
