<svg width="166" height="165" viewBox="0 0 166 165" fill="none" xmlns="http://www.w3.org/2000/svg">
<path d="M0.923828 0.0807323H165.616V164.772H0.923828V0.0807323ZM90.2544 128.746V75.8095H74.8145V128.379C74.8145 136.098 71.506 138.304 66.727 138.304C61.2128 138.304 59.0071 134.628 56.8014 130.217L43.9348 137.937C47.611 145.656 54.9633 151.906 67.0946 151.906C81.064 151.906 90.2544 144.554 90.2544 128.746ZM127.016 151.906C141.721 151.906 152.749 144.554 152.749 130.584C152.749 117.718 145.397 111.836 132.163 106.322L128.119 104.484C121.502 101.543 118.561 99.7045 118.561 94.9255C118.561 91.2494 121.502 88.3085 125.913 88.3085C130.692 88.3085 133.265 90.5142 136.206 94.9255L147.97 87.2056C143.191 78.3828 135.839 75.0743 126.281 75.0743C112.311 75.0743 103.489 83.8971 103.489 95.2932C103.489 108.16 110.841 114.042 121.869 118.821L125.913 120.291C132.898 123.6 137.309 125.438 137.309 130.584C137.309 134.996 132.898 138.304 126.648 138.304C118.928 138.304 114.885 134.26 111.576 129.114L98.7096 136.098C103.489 145.289 112.679 151.906 127.016 151.906Z" fill="black"/>
</svg>
