<svg width="40" height="40" viewBox="0 0 40 40" fill="none" xmlns="http://www.w3.org/2000/svg">
<path d="M37.8439 2.68297C38.6787 2.91064 39.2859 3.59368 39.2859 4.4285C39.2859 23.933 23.5001 39.6428 4.07157 39.6428C3.16085 39.6428 2.47782 39.1115 2.25014 38.2767L0.428711 30.3839C0.276925 29.549 0.65639 28.6383 1.49121 28.2589L9.99121 24.616C10.7501 24.3124 11.585 24.5401 12.1162 25.1473L15.9109 29.7767C21.8305 26.9687 26.6117 22.1115 29.3439 16.3437L24.7144 12.549C24.1073 12.0178 23.8796 11.183 24.1832 10.424L27.826 1.92404C28.2055 1.08922 29.1162 0.633858 29.951 0.861537L37.8439 2.68297Z" fill="#D90062"/>
</svg>
