<svg width="109" height="21" viewBox="0 0 109 21" fill="none" xmlns="http://www.w3.org/2000/svg">
<path d="M7.79297 16.8516C7.79297 16.9375 7.70703 16.9805 7.57812 16.9805C7.44922 17.0234 7.36328 16.9375 7.36328 16.8516C7.36328 16.7656 7.44922 16.6797 7.57812 16.6797C7.70703 16.6797 7.79297 16.7656 7.79297 16.8516ZM6.46094 16.6367C6.50391 16.5508 6.63281 16.5078 6.76172 16.5508C6.89062 16.5938 6.93359 16.6797 6.93359 16.7656C6.89062 16.8516 6.76172 16.8945 6.67578 16.8516C6.54688 16.8516 6.46094 16.7227 6.46094 16.6367ZM8.39453 16.5938C8.48047 16.5508 8.60938 16.6367 8.60938 16.7227C8.65234 16.8086 8.56641 16.8516 8.4375 16.8945C8.30859 16.9375 8.17969 16.8945 8.17969 16.8086C8.17969 16.6797 8.26562 16.5938 8.39453 16.5938ZM11.1875 0.09375C17.1602 0.09375 22.0156 4.64844 22.0156 10.5781C22.0156 15.3477 19.0938 19.4297 14.7969 20.8477C14.2383 20.9766 14.0234 20.6328 14.0234 20.332C14.0234 19.9883 14.0664 18.1836 14.0664 16.7656C14.0664 15.7344 13.7227 15.0898 13.3359 14.7461C15.7422 14.4883 18.2773 14.1445 18.2773 10.0195C18.2773 8.81641 17.8477 8.25781 17.1602 7.48438C17.2461 7.18359 17.6328 6.06641 17.0312 4.5625C16.1289 4.26172 14.0664 5.72266 14.0664 5.72266C13.207 5.46484 12.3047 5.37891 11.3594 5.37891C10.457 5.37891 9.55469 5.46484 8.69531 5.72266C8.69531 5.72266 6.58984 4.30469 5.73047 4.5625C5.12891 6.06641 5.47266 7.18359 5.60156 7.48438C4.91406 8.25781 4.57031 8.81641 4.57031 10.0195C4.57031 14.1445 7.01953 14.4883 9.42578 14.7461C9.08203 15.0469 8.82422 15.5195 8.73828 16.207C8.09375 16.5078 6.54688 16.9805 5.60156 15.3047C5 14.2734 3.92578 14.1875 3.92578 14.1875C2.89453 14.1875 3.88281 14.875 3.88281 14.875C4.57031 15.1758 5.04297 16.4219 5.04297 16.4219C5.6875 18.3555 8.69531 17.7109 8.69531 17.7109C8.69531 18.6133 8.69531 20.0742 8.69531 20.375C8.69531 20.6328 8.52344 20.9766 7.96484 20.8906C3.66797 19.4297 0.703125 15.3477 0.703125 10.5781C0.703125 4.64844 5.25781 0.09375 11.1875 0.09375ZM4.87109 14.918C4.91406 14.875 5 14.918 5.08594 14.9609C5.17188 15.0469 5.17188 15.1758 5.12891 15.2188C5.04297 15.2617 4.95703 15.2188 4.87109 15.1758C4.82812 15.0898 4.78516 14.9609 4.87109 14.918ZM4.39844 14.5742C4.44141 14.5312 4.48438 14.5312 4.57031 14.5742C4.65625 14.6172 4.69922 14.6602 4.69922 14.7031C4.65625 14.7891 4.57031 14.7891 4.48438 14.7461C4.39844 14.7031 4.35547 14.6602 4.39844 14.5742ZM5.77344 16.1211C5.85938 16.0352 5.98828 16.0781 6.07422 16.1641C6.16016 16.25 6.16016 16.3789 6.11719 16.4219C6.07422 16.5078 5.94531 16.4648 5.85938 16.3789C5.73047 16.293 5.73047 16.1641 5.77344 16.1211ZM5.30078 15.4766C5.38672 15.4336 5.47266 15.4766 5.55859 15.5625C5.60156 15.6484 5.60156 15.7773 5.55859 15.8203C5.47266 15.8633 5.38672 15.8203 5.30078 15.7344C5.21484 15.6484 5.21484 15.5195 5.30078 15.4766ZM40.2344 5.80859C42.9414 5.80859 45.1758 8.04297 45.1758 10.75C45.1758 13.5 42.9414 15.6914 40.2344 15.6914C37.4844 15.6914 35.293 13.5 35.293 10.75C35.293 8.04297 37.4844 5.80859 40.2344 5.80859ZM40.2344 13.9727C41.9961 13.9727 43.4141 12.5547 43.4141 10.75C43.4141 8.98828 41.9961 7.57031 40.2344 7.57031C38.4297 7.57031 37.0117 8.98828 37.0117 10.75C37.0117 12.5547 38.4727 13.9727 40.2344 13.9727ZM46.5078 5.63672C46.5078 6.28125 45.9922 6.79688 45.3477 6.79688C44.7031 6.79688 44.1875 6.28125 44.1875 5.63672C44.1875 4.99219 44.7031 4.47656 45.3477 4.47656C45.9922 4.47656 46.5078 4.99219 46.5078 5.63672ZM49.7734 6.79688C49.8594 8.38672 49.8594 13.1562 49.7734 14.7461C49.6875 16.293 49.3438 17.625 48.2266 18.7852C47.1094 19.9023 45.7344 20.2461 44.1875 20.332C42.5977 20.418 37.8281 20.418 36.2383 20.332C34.6914 20.2461 33.3594 19.9023 32.1992 18.7852C31.082 17.625 30.7383 16.293 30.6523 14.7461C30.5664 13.1562 30.5664 8.38672 30.6523 6.79688C30.7383 5.25 31.082 3.875 32.1992 2.75781C33.3594 1.64062 34.6914 1.29688 36.2383 1.21094C37.8281 1.125 42.5977 1.125 44.1875 1.21094C45.7344 1.29688 47.1094 1.64062 48.2266 2.75781C49.3438 3.875 49.6875 5.25 49.7734 6.79688ZM47.7109 16.4219C48.2266 15.1758 48.0977 12.168 48.0977 10.75C48.0977 9.375 48.2266 6.36719 47.7109 5.07812C47.3672 4.26172 46.7227 3.57422 45.9062 3.27344C44.6172 2.75781 41.6094 2.88672 40.2344 2.88672C38.8164 2.88672 35.8086 2.75781 34.5625 3.27344C33.7031 3.61719 33.0586 4.26172 32.7148 5.07812C32.1992 6.36719 32.3281 9.375 32.3281 10.75C32.3281 12.168 32.1992 15.1758 32.7148 16.4219C33.0586 17.2812 33.7031 17.9258 34.5625 18.2695C35.8086 18.7852 38.8164 18.6562 40.2344 18.6562C41.6094 18.6562 44.6172 18.7852 45.9062 18.2695C46.7227 17.9258 47.4102 17.2812 47.7109 16.4219ZM76.3281 1.125C77.0586 1.125 77.7031 1.76953 77.7031 2.54297V19C77.7031 19.7734 77.0586 20.375 76.3281 20.375H59.7852C59.0547 20.375 58.4531 19.7734 58.4531 19V2.54297C58.4531 1.76953 59.0547 1.125 59.7852 1.125H76.3281ZM64.2539 17.625V8.47266H61.418V17.625H64.2539ZM62.8359 7.18359C63.7383 7.18359 64.4688 6.45312 64.4688 5.55078C64.4688 4.64844 63.7383 3.875 62.8359 3.875C61.8906 3.875 61.1602 4.64844 61.1602 5.55078C61.1602 6.45312 61.8906 7.18359 62.8359 7.18359ZM74.9531 17.625V12.5977C74.9531 10.1484 74.3945 8.21484 71.5156 8.21484C70.1406 8.21484 69.1953 8.98828 68.8086 9.71875H68.7656V8.47266H66.0586V17.625H68.8945V13.1133C68.8945 11.9102 69.1094 10.75 70.6133 10.75C72.0742 10.75 72.0742 12.125 72.0742 13.1562V17.625H74.9531ZM106.02 6.28125C106.02 6.49609 106.02 6.66797 106.02 6.88281C106.02 12.8555 101.508 19.6875 93.2148 19.6875C90.6367 19.6875 88.2734 18.957 86.2969 17.668C86.6406 17.7109 86.9844 17.7539 87.3711 17.7539C89.4766 17.7539 91.4102 17.0234 92.957 15.8203C90.9805 15.7773 89.3047 14.4883 88.7461 12.6836C89.0469 12.7266 89.3047 12.7695 89.6055 12.7695C89.9922 12.7695 90.4219 12.6836 90.7656 12.5977C88.7031 12.168 87.1562 10.3633 87.1562 8.17188V8.12891C87.7578 8.47266 88.4883 8.64453 89.2188 8.6875C87.9727 7.87109 87.1992 6.49609 87.1992 4.94922C87.1992 4.08984 87.4141 3.31641 87.8008 2.67188C90.0352 5.37891 93.3867 7.18359 97.125 7.39844C97.0391 7.05469 96.9961 6.71094 96.9961 6.36719C96.9961 3.875 99.0156 1.85547 101.508 1.85547C102.797 1.85547 103.957 2.37109 104.816 3.27344C105.805 3.05859 106.793 2.67188 107.652 2.15625C107.309 3.23047 106.621 4.08984 105.676 4.64844C106.578 4.5625 107.48 4.30469 108.254 3.96094C107.652 4.86328 106.879 5.63672 106.02 6.28125Z" fill="#14192D"/>
</svg>
